<svg id="visual" viewBox="0 0 900 600" width="900" height="600" xmlns="http://www.w3.org/2000/svg" xmlns:xlink="http://www.w3.org/1999/xlink" version="1.1"><g stroke-width="1" stroke-linejoin="bevel"><path d="M390 271L465 230L405 203Z" fill="#1b44c2" stroke="#1b44c2"></path><path d="M292 173L335 322L390 271Z" fill="#00101c" stroke="#00101c"></path><path d="M390 271L538 301L465 230Z" fill="#1b44c2" stroke="#1b44c2"></path><path d="M398 400L538 301L390 271Z" fill="#00306e" stroke="#00306e"></path><path d="M503 126L405 203L465 230Z" fill="#003990" stroke="#003990"></path><path d="M503 126L424 108L405 203Z" fill="#003da1" stroke="#003da1"></path><path d="M405 203L292 173L390 271Z" fill="#003990" stroke="#003990"></path><path d="M561 195L503 126L465 230Z" fill="#00357f" stroke="#00357f"></path><path d="M538 301L561 195L465 230Z" fill="#00306e" stroke="#00306e"></path><path d="M317 124L292 173L405 203Z" fill="#00254d" stroke="#00254d"></path><path d="M424 108L317 124L405 203Z" fill="#00306e" stroke="#00306e"></path><path d="M335 322L398 400L390 271Z" fill="#001f3c" stroke="#001f3c"></path><path d="M398 400L488 418L538 301Z" fill="#003990" stroke="#003990"></path><path d="M629 363L619 301L538 301Z" fill="#002b5d" stroke="#002b5d"></path><path d="M538 301L619 301L561 195Z" fill="#003990" stroke="#003990"></path><path d="M209 102L214 231L292 173Z" fill="#003990" stroke="#003990"></path><path d="M292 173L214 231L335 322Z" fill="#00306e" stroke="#00306e"></path><path d="M335 322L322 437L398 400Z" fill="#00357f" stroke="#00357f"></path><path d="M190 404L322 437L335 322Z" fill="#001f3c" stroke="#001f3c"></path><path d="M398 400L428 533L488 418Z" fill="#00182b" stroke="#00182b"></path><path d="M488 418L629 363L538 301Z" fill="#00357f" stroke="#00357f"></path><path d="M670 62L603 78L739 224Z" fill="#00254d" stroke="#00254d"></path><path d="M561 195L603 78L503 126Z" fill="#001f3c" stroke="#001f3c"></path><path d="M487 0L371 0L424 108Z" fill="#002b5d" stroke="#002b5d"></path><path d="M424 108L371 0L317 124Z" fill="#00101c" stroke="#00101c"></path><path d="M603 78L561 195L739 224Z" fill="#00101c" stroke="#00101c"></path><path d="M214 231L194 327L335 322Z" fill="#00306e" stroke="#00306e"></path><path d="M487 0L424 108L503 126Z" fill="#0941b1" stroke="#0941b1"></path><path d="M317 124L209 102L292 173Z" fill="#003990" stroke="#003990"></path><path d="M603 78L487 0L503 126Z" fill="#00254d" stroke="#00254d"></path><path d="M333 0L209 102L317 124Z" fill="#00357f" stroke="#00357f"></path><path d="M214 231L132 266L194 327Z" fill="#00182b" stroke="#00182b"></path><path d="M371 0L333 0L317 124Z" fill="#00254d" stroke="#00254d"></path><path d="M194 327L190 404L335 322Z" fill="#1b44c2" stroke="#1b44c2"></path><path d="M603 78L582 0L487 0Z" fill="#0941b1" stroke="#0941b1"></path><path d="M322 437L428 533L398 400Z" fill="#00254d" stroke="#00254d"></path><path d="M488 418L577 499L629 363Z" fill="#003da1" stroke="#003da1"></path><path d="M334 600L428 533L322 437Z" fill="#00254d" stroke="#00254d"></path><path d="M194 327L72 427L190 404Z" fill="#00101c" stroke="#00101c"></path><path d="M106 129L132 266L214 231Z" fill="#00357f" stroke="#00357f"></path><path d="M428 533L509 527L488 418Z" fill="#003990" stroke="#003990"></path><path d="M509 527L577 499L488 418Z" fill="#00101c" stroke="#00101c"></path><path d="M739 224L561 195L619 301Z" fill="#00101c" stroke="#00101c"></path><path d="M603 78L670 62L582 0Z" fill="#00306e" stroke="#00306e"></path><path d="M679 426L725 306L629 363Z" fill="#00182b" stroke="#00182b"></path><path d="M629 363L725 306L619 301Z" fill="#0941b1" stroke="#0941b1"></path><path d="M577 499L679 426L629 363Z" fill="#00101c" stroke="#00101c"></path><path d="M725 306L739 224L619 301Z" fill="#001f3c" stroke="#001f3c"></path><path d="M333 0L210 0L209 102Z" fill="#00101c" stroke="#00101c"></path><path d="M209 102L106 129L214 231Z" fill="#002b5d" stroke="#002b5d"></path><path d="M72 427L178 463L190 404Z" fill="#00306e" stroke="#00306e"></path><path d="M190 404L178 463L322 437Z" fill="#001f3c" stroke="#001f3c"></path><path d="M178 463L264 537L322 437Z" fill="#00306e" stroke="#00306e"></path><path d="M86 0L106 129L209 102Z" fill="#00182b" stroke="#00182b"></path><path d="M0 87L77 163L106 129Z" fill="#003da1" stroke="#003da1"></path><path d="M106 129L77 163L132 266Z" fill="#00182b" stroke="#00182b"></path><path d="M132 266L72 427L194 327Z" fill="#00182b" stroke="#00182b"></path><path d="M739 224L762 127L670 62Z" fill="#001f3c" stroke="#001f3c"></path><path d="M817 170L762 127L739 224Z" fill="#00306e" stroke="#00306e"></path><path d="M428 533L490 600L509 527Z" fill="#003990" stroke="#003990"></path><path d="M509 527L568 600L577 499Z" fill="#00182b" stroke="#00182b"></path><path d="M334 600L392 600L428 533Z" fill="#00306e" stroke="#00306e"></path><path d="M679 426L776 325L725 306Z" fill="#00182b" stroke="#00182b"></path><path d="M725 306L776 325L739 224Z" fill="#00357f" stroke="#00357f"></path><path d="M392 600L490 600L428 533Z" fill="#001f3c" stroke="#001f3c"></path><path d="M577 499L709 518L679 426Z" fill="#00182b" stroke="#00182b"></path><path d="M178 600L334 600L264 537Z" fill="#001f3c" stroke="#001f3c"></path><path d="M264 537L334 600L322 437Z" fill="#003da1" stroke="#003da1"></path><path d="M490 600L568 600L509 527Z" fill="#003990" stroke="#003990"></path><path d="M679 426L835 393L776 325Z" fill="#0941b1" stroke="#0941b1"></path><path d="M0 318L72 427L132 266Z" fill="#00357f" stroke="#00357f"></path><path d="M178 463L178 600L264 537Z" fill="#001f3c" stroke="#001f3c"></path><path d="M568 600L709 518L577 499Z" fill="#003da1" stroke="#003da1"></path><path d="M762 127L738 0L670 62Z" fill="#00101c" stroke="#00101c"></path><path d="M670 62L738 0L582 0Z" fill="#003990" stroke="#003990"></path><path d="M72 427L103 481L178 463Z" fill="#003da1" stroke="#003da1"></path><path d="M776 325L817 170L739 224Z" fill="#00306e" stroke="#00306e"></path><path d="M762 127L787 0L738 0Z" fill="#003da1" stroke="#003da1"></path><path d="M210 0L86 0L209 102Z" fill="#003990" stroke="#003990"></path><path d="M0 87L0 200L77 163Z" fill="#00254d" stroke="#00254d"></path><path d="M77 163L0 200L132 266Z" fill="#00306e" stroke="#00306e"></path><path d="M0 200L0 318L132 266Z" fill="#00182b" stroke="#00182b"></path><path d="M72 427L0 500L103 481Z" fill="#00254d" stroke="#00254d"></path><path d="M123 600L178 600L103 481Z" fill="#003990" stroke="#003990"></path><path d="M103 481L178 600L178 463Z" fill="#001f3c" stroke="#001f3c"></path><path d="M900 134L787 0L762 127Z" fill="#00101c" stroke="#00101c"></path><path d="M839 480L835 393L679 426Z" fill="#003da1" stroke="#003da1"></path><path d="M776 325L900 237L817 170Z" fill="#002b5d" stroke="#002b5d"></path><path d="M86 0L0 87L106 129Z" fill="#0941b1" stroke="#0941b1"></path><path d="M0 318L0 401L72 427Z" fill="#00306e" stroke="#00306e"></path><path d="M0 500L123 600L103 481Z" fill="#003da1" stroke="#003da1"></path><path d="M568 600L734 600L709 518Z" fill="#00254d" stroke="#00254d"></path><path d="M709 518L839 480L679 426Z" fill="#00182b" stroke="#00182b"></path><path d="M900 302L900 237L776 325Z" fill="#00254d" stroke="#00254d"></path><path d="M817 170L900 134L762 127Z" fill="#00306e" stroke="#00306e"></path><path d="M792 600L839 480L709 518Z" fill="#00254d" stroke="#00254d"></path><path d="M835 393L900 302L776 325Z" fill="#00357f" stroke="#00357f"></path><path d="M900 415L900 302L835 393Z" fill="#003990" stroke="#003990"></path><path d="M86 0L0 0L0 87Z" fill="#00101c" stroke="#00101c"></path><path d="M900 237L900 134L817 170Z" fill="#002b5d" stroke="#002b5d"></path><path d="M0 401L0 500L72 427Z" fill="#003990" stroke="#003990"></path><path d="M900 471L900 415L839 480Z" fill="#001f3c" stroke="#001f3c"></path><path d="M839 480L900 415L835 393Z" fill="#0941b1" stroke="#0941b1"></path><path d="M734 600L792 600L709 518Z" fill="#0941b1" stroke="#0941b1"></path><path d="M900 600L900 471L839 480Z" fill="#00357f" stroke="#00357f"></path><path d="M900 134L900 0L787 0Z" fill="#001f3c" stroke="#001f3c"></path><path d="M0 500L0 600L123 600Z" fill="#001f3c" stroke="#001f3c"></path><path d="M792 600L900 600L839 480Z" fill="#001f3c" stroke="#001f3c"></path></g></svg>