<?xml version="1.0" standalone="no"?>
<svg xmlns:xlink="http://www.w3.org/1999/xlink" id="wave" style="transform:rotate(0deg); transition: 0.3s" viewBox="0 0 1440 490" version="1.1" xmlns="http://www.w3.org/2000/svg"><defs><linearGradient id="sw-gradient-0" x1="0" x2="0" y1="1" y2="0"><stop stop-color="rgba(243, 106, 62, 0)" offset="0%"/><stop stop-color="rgba(255, 179, 11, 0)" offset="100%"/></linearGradient></defs><path style="transform:translate(0, 0px); opacity:1" fill="url(#sw-gradient-0)" d="M0,147L60,196C120,245,240,343,360,351.2C480,359,600,278,720,220.5C840,163,960,131,1080,130.7C1200,131,1320,163,1440,220.5C1560,278,1680,359,1800,400.2C1920,441,2040,441,2160,367.5C2280,294,2400,147,2520,147C2640,147,2760,294,2880,310.3C3000,327,3120,212,3240,187.8C3360,163,3480,229,3600,220.5C3720,212,3840,131,3960,138.8C4080,147,4200,245,4320,285.8C4440,327,4560,310,4680,310.3C4800,310,4920,327,5040,310.3C5160,294,5280,245,5400,220.5C5520,196,5640,196,5760,212.3C5880,229,6000,261,6120,228.7C6240,196,6360,98,6480,81.7C6600,65,6720,131,6840,171.5C6960,212,7080,229,7200,236.8C7320,245,7440,245,7560,228.7C7680,212,7800,180,7920,204.2C8040,229,8160,310,8280,334.8C8400,359,8520,327,8580,310.3L8640,294L8640,490L8580,490C8520,490,8400,490,8280,490C8160,490,8040,490,7920,490C7800,490,7680,490,7560,490C7440,490,7320,490,7200,490C7080,490,6960,490,6840,490C6720,490,6600,490,6480,490C6360,490,6240,490,6120,490C6000,490,5880,490,5760,490C5640,490,5520,490,5400,490C5280,490,5160,490,5040,490C4920,490,4800,490,4680,490C4560,490,4440,490,4320,490C4200,490,4080,490,3960,490C3840,490,3720,490,3600,490C3480,490,3360,490,3240,490C3120,490,3000,490,2880,490C2760,490,2640,490,2520,490C2400,490,2280,490,2160,490C2040,490,1920,490,1800,490C1680,490,1560,490,1440,490C1320,490,1200,490,1080,490C960,490,840,490,720,490C600,490,480,490,360,490C240,490,120,490,60,490L0,490Z"/></svg>